<svg id="visual" viewBox="0 0 1920 1080" width="1920" height="1080" xmlns="http://www.w3.org/2000/svg" xmlns:xlink="http://www.w3.org/1999/xlink" version="1.1"><rect x="0" y="0" width="1920" height="1080" fill="#002233"></rect><path d="M0 833L80 849.3C160 865.7 320 898.3 480 897.3C640 896.3 800 861.7 960 823.2C1120 784.7 1280 742.3 1440 762.7C1600 783 1760 866 1840 907.5L1920 949L1920 1081L1840 1081C1760 1081 1600 1081 1440 1081C1280 1081 1120 1081 960 1081C800 1081 640 1081 480 1081C320 1081 160 1081 80 1081L0 1081Z" fill="#0066FF" stroke-linecap="round" stroke-linejoin="miter"></path></svg>