<svg width="32" height="32" viewBox="0 0 32 32" fill="none" xmlns="http://www.w3.org/2000/svg">
<rect width="32" height="32" rx="4" fill="url(#paint0_linear_6_3)"/>
<path d="M6.91357 15.3647V16.6216H2.83154V15.3647H6.91357ZM3.30957 12.1797V20H1.69824V12.1797H3.30957ZM8.06299 12.1797V20H6.45703V12.1797H8.06299ZM11.829 12.1797L8.96082 20.6714H7.81141L10.6796 12.1797H11.829ZM16.3201 17.4058H17.926C17.8938 17.9321 17.7488 18.3994 17.491 18.8076C17.2367 19.2158 16.8805 19.5345 16.4221 19.7637C15.9674 19.9928 15.4195 20.1074 14.7786 20.1074C14.2773 20.1074 13.8279 20.0215 13.4304 19.8496C13.033 19.6742 12.6928 19.4235 12.4099 19.0977C12.1306 18.7718 11.9176 18.3779 11.7708 17.916C11.624 17.4541 11.5505 16.9367 11.5505 16.3638V15.8213C11.5505 15.2484 11.6257 14.731 11.7761 14.269C11.9301 13.8035 12.1485 13.4079 12.4314 13.082C12.7179 12.7562 13.0598 12.5055 13.4573 12.3301C13.8547 12.1546 14.2988 12.0669 14.7893 12.0669C15.441 12.0669 15.9907 12.1851 16.4382 12.4214C16.8894 12.6577 17.2385 12.9836 17.4856 13.3989C17.7363 13.8143 17.8866 14.2869 17.9368 14.8169H16.3254C16.3075 14.5018 16.2449 14.235 16.1375 14.0166C16.03 13.7946 15.8671 13.6281 15.6487 13.5171C15.4338 13.4025 15.1474 13.3452 14.7893 13.3452C14.5208 13.3452 14.2862 13.3953 14.0857 13.4956C13.8852 13.5959 13.7169 13.748 13.5808 13.9521C13.4448 14.1562 13.3427 14.4141 13.2747 14.7256C13.2102 15.0335 13.178 15.3952 13.178 15.8105V16.3638C13.178 16.7684 13.2084 17.1247 13.2693 17.4326C13.3302 17.737 13.4233 17.9948 13.5486 18.2061C13.6775 18.4137 13.8422 18.5713 14.0427 18.6787C14.2468 18.7826 14.4921 18.8345 14.7786 18.8345C15.1152 18.8345 15.3927 18.7808 15.6111 18.6733C15.8295 18.5659 15.996 18.4066 16.1106 18.1953C16.2288 17.984 16.2986 17.7209 16.3201 17.4058ZM22.1754 17.9536C22.1754 17.814 22.1539 17.6886 22.111 17.5776C22.0716 17.4631 21.9964 17.3592 21.8854 17.2661C21.7744 17.1694 21.6186 17.0745 21.4181 16.9814C21.2176 16.8883 20.958 16.7917 20.6393 16.6914C20.2848 16.5768 19.9482 16.4479 19.6295 16.3047C19.3144 16.1615 19.0351 15.995 18.7916 15.8052C18.5517 15.6118 18.362 15.388 18.2223 15.1338C18.0862 14.8796 18.0182 14.5841 18.0182 14.2476C18.0182 13.9217 18.0898 13.6263 18.233 13.3613C18.3763 13.0928 18.5768 12.8636 18.8346 12.6738C19.0924 12.4805 19.3968 12.3319 19.7477 12.228C20.1022 12.1242 20.4907 12.0723 20.9132 12.0723C21.4897 12.0723 21.9928 12.1761 22.4225 12.3838C22.8522 12.5915 23.1852 12.8761 23.4215 13.2378C23.6614 13.5994 23.7814 14.013 23.7814 14.4785H22.1808C22.1808 14.2493 22.1325 14.0488 22.0358 13.877C21.9427 13.7015 21.7995 13.5636 21.6061 13.4634C21.4163 13.3631 21.1764 13.313 20.8864 13.313C20.6071 13.313 20.3743 13.356 20.1881 13.4419C20.0019 13.5243 19.8623 13.637 19.7692 13.7803C19.6761 13.9199 19.6295 14.0775 19.6295 14.2529C19.6295 14.3854 19.6618 14.5054 19.7262 14.6128C19.7942 14.7202 19.8945 14.8205 20.027 14.9136C20.1595 15.0067 20.3224 15.0944 20.5158 15.1768C20.7091 15.2591 20.9329 15.3397 21.1871 15.4185C21.6133 15.5474 21.9874 15.6924 22.3097 15.8535C22.6356 16.0146 22.9077 16.1955 23.1261 16.396C23.3445 16.5965 23.5093 16.8239 23.6203 17.0781C23.7313 17.3324 23.7868 17.6206 23.7868 17.9429C23.7868 18.283 23.7205 18.5874 23.588 18.856C23.4555 19.1245 23.264 19.3519 23.0133 19.5381C22.7627 19.7243 22.4637 19.8657 22.1163 19.9624C21.769 20.0591 21.3805 20.1074 20.9508 20.1074C20.5641 20.1074 20.1828 20.0573 19.8068 19.957C19.4308 19.8532 19.0888 19.6974 18.7809 19.4897C18.4765 19.2821 18.233 19.0171 18.0504 18.6948C17.8678 18.3726 17.7765 17.9912 17.7765 17.5508H19.3932C19.3932 17.7943 19.4308 18.0002 19.506 18.1685C19.5812 18.3368 19.6868 18.4728 19.8229 18.5767C19.9625 18.6805 20.1273 18.7557 20.317 18.8022C20.5104 18.8488 20.7217 18.8721 20.9508 18.8721C21.2301 18.8721 21.4593 18.8327 21.6383 18.7539C21.8209 18.6751 21.9552 18.5659 22.0412 18.4263C22.1307 18.2866 22.1754 18.1291 22.1754 17.9536ZM28.0737 17.9536C28.0737 17.814 28.0523 17.6886 28.0093 17.5776C27.9699 17.4631 27.8947 17.3592 27.7837 17.2661C27.6727 17.1694 27.5169 17.0745 27.3164 16.9814C27.1159 16.8883 26.8563 16.7917 26.5376 16.6914C26.1831 16.5768 25.8465 16.4479 25.5279 16.3047C25.2127 16.1615 24.9335 15.995 24.69 15.8052C24.4501 15.6118 24.2603 15.388 24.1206 15.1338C23.9846 14.8796 23.9165 14.5841 23.9165 14.2476C23.9165 13.9217 23.9881 13.6263 24.1314 13.3613C24.2746 13.0928 24.4751 12.8636 24.7329 12.6738C24.9907 12.4805 25.2951 12.3319 25.646 12.228C26.0005 12.1242 26.389 12.0723 26.8115 12.0723C27.388 12.0723 27.8911 12.1761 28.3208 12.3838C28.7505 12.5915 29.0835 12.8761 29.3198 13.2378C29.5598 13.5994 29.6797 14.013 29.6797 14.4785H28.0791C28.0791 14.2493 28.0308 14.0488 27.9341 13.877C27.841 13.7015 27.6978 13.5636 27.5044 13.4634C27.3146 13.3631 27.0747 13.313 26.7847 13.313C26.5054 13.313 26.2726 13.356 26.0864 13.4419C25.9002 13.5243 25.7606 13.637 25.6675 13.7803C25.5744 13.9199 25.5279 14.0775 25.5279 14.2529C25.5279 14.3854 25.5601 14.5054 25.6245 14.6128C25.6926 14.7202 25.7928 14.8205 25.9253 14.9136C26.0578 15.0067 26.2207 15.0944 26.4141 15.1768C26.6074 15.2591 26.8312 15.3397 27.0855 15.4185C27.5116 15.5474 27.8858 15.6924 28.208 15.8535C28.5339 16.0146 28.806 16.1955 29.0244 16.396C29.2429 16.5965 29.4076 16.8239 29.5186 17.0781C29.6296 17.3324 29.6851 17.6206 29.6851 17.9429C29.6851 18.283 29.6188 18.5874 29.4863 18.856C29.3539 19.1245 29.1623 19.3519 28.9116 19.5381C28.661 19.7243 28.362 19.8657 28.0147 19.9624C27.6673 20.0591 27.2788 20.1074 26.8491 20.1074C26.4624 20.1074 26.0811 20.0573 25.7051 19.957C25.3291 19.8532 24.9872 19.6974 24.6792 19.4897C24.3749 19.2821 24.1314 19.0171 23.9487 18.6948C23.7661 18.3726 23.6748 17.9912 23.6748 17.5508H25.2915C25.2915 17.7943 25.3291 18.0002 25.4043 18.1685C25.4795 18.3368 25.5851 18.4728 25.7212 18.5767C25.8609 18.6805 26.0256 18.7557 26.2154 18.8022C26.4087 18.8488 26.62 18.8721 26.8491 18.8721C27.1284 18.8721 27.3576 18.8327 27.5366 18.7539C27.7193 18.6751 27.8535 18.5659 27.9395 18.4263C28.029 18.2866 28.0737 18.1291 28.0737 17.9536Z" fill="white"/>
<defs>
<linearGradient id="paint0_linear_6_3" x1="16" y1="0" x2="16" y2="32" gradientUnits="userSpaceOnUse">
<stop stop-color="#003279"/>
<stop offset="1" stop-color="#131313"/>
</linearGradient>
</defs>
</svg>
