<svg width="166" height="68" viewBox="0 0 166 68" fill="none" xmlns="http://www.w3.org/2000/svg">
<path d="M68.2192 34C68.2192 52.7777 52.9478 68 34.1096 68C15.2714 68 0 52.7777 0 34C0 15.2223 15.2714 0 34.1096 0C52.9478 0 68.2192 15.2223 68.2192 34Z" fill="url(#paint0_linear_1_33)"/>
<path d="M122.795 34C122.795 52.7777 107.523 68 88.6849 68C69.8467 68 54.5753 52.7777 54.5753 34C54.5753 15.2223 69.8467 0 88.6849 0C107.523 0 122.795 15.2223 122.795 34Z" fill="url(#paint1_linear_1_33)"/>
<path d="M166 34C166 52.7777 150.729 68 131.89 68C113.052 68 97.7808 52.7777 97.7808 34C97.7808 15.2223 113.052 0 131.89 0C150.729 0 166 15.2223 166 34Z" fill="url(#paint2_linear_1_33)"/>
<defs>
<linearGradient id="paint0_linear_1_33" x1="83" y1="0" x2="83" y2="68" gradientUnits="userSpaceOnUse">
<stop stop-color="#7294C6"/>
<stop offset="1" stop-color="#003279"/>
</linearGradient>
<linearGradient id="paint1_linear_1_33" x1="83" y1="0" x2="83" y2="68" gradientUnits="userSpaceOnUse">
<stop stop-color="#7294C6"/>
<stop offset="1" stop-color="#003279"/>
</linearGradient>
<linearGradient id="paint2_linear_1_33" x1="83" y1="0" x2="83" y2="68" gradientUnits="userSpaceOnUse">
<stop stop-color="#7294C6"/>
<stop offset="1" stop-color="#003279"/>
</linearGradient>
</defs>
</svg>
